<svg xmlns="http://www.w3.org/2000/svg" xmlns:xlink="http://www.w3.org/1999/xlink" width="32" height="32" viewBox="0 0 32 32">
  <style>
    path {
      fill: #1b1a18;
    }
    @media (prefers-color-scheme: dark) {
      path {
        fill: #f6f3ee;
      }
    }
  </style>
  <path d="M9.007-6.117a64.9,64.9,0,0,1,2.481-9.007,2.17,2.17,0,0,1,2.049-1.294c.674,0,.809.108.539,1.079l-2.7,9.3c-.243.863-.4,1.052-.917,1.052C9.762-4.984,9.007-5.362,9.007-6.117Zm3.613-12.027C6.877-18.144.3-15.555.3-9.731c0,3.64,2.562,6.957,6.2,6.957,1.16,0,3.209-.458,3.748-.458.485,0,.728.135.566.647L9.573,1.73C9.187,3.078,8.657,4.292,7.5,4.292c-.755,0-1.133-.4-1.133-.836s.378-.647.378-1a.623.623,0,0,0-.647-.647,1.99,1.99,0,0,0-1.672,2A1.87,1.87,0,0,0,6.364,5.856c2.7,0,4.454-1.939,5.2-4.557L16.261-15.07c.317-1.107.27-1.133,1.24-1.133.755,0,1.672.243,2.157.243.917,0,1.537-.135,1.537-.674,0-.566-.863-.755-1.591-.917A40.076,40.076,0,0,0,12.621-18.144Z" transform="translate(5.703 22.144)" />
</svg>